<svg width="193" height="53" viewBox="0 0 193 53" fill="none" xmlns="http://www.w3.org/2000/svg">
<path d="M54.098 39.1242L27.3381 52.6888V33.259L34.3688 33.6644L54.098 39.1242Z" fill="#606060"/>
<path d="M27.3381 52.6888C26.2802 52.2691 25.2936 51.7001 24.2785 51.1959C20.9734 49.5504 17.6751 47.8926 14.3756 46.233C9.84088 43.9549 5.31044 41.6725 0.777879 39.3901C0.642623 39.3231 0.508215 39.2536 0.353455 39.1755C2.06938 38.6985 3.74079 38.2338 5.41135 37.7696C9.35285 36.6773 13.2986 35.5898 17.2376 34.4848C18.2429 34.1999 19.2745 34.0006 20.2433 33.5898C20.3586 33.4774 20.4299 33.5876 20.4994 33.65C20.8004 33.9162 21.1129 34.1706 21.3966 34.456C23.2164 36.2906 25.1303 38.0295 26.9832 39.8315C27.1091 39.9506 27.2418 40.0693 27.3449 40.2114C27.4 40.2868 27.4314 40.3712 27.4521 40.4624C27.4996 40.7074 27.4916 40.9534 27.4916 41.1984C27.492 44.7223 27.492 48.2457 27.4916 51.7696C27.4912 52.0834 27.5196 52.4031 27.3381 52.6888Z" fill="#AEAEAE"/>
<path d="M27.3279 1.80841C28.175 2.78658 28.8734 3.87626 29.6294 4.92269C34.2968 11.3857 38.9506 17.8585 43.6095 24.3296C43.6684 24.4135 43.7142 24.5085 43.7659 24.5988C43.7524 24.6874 43.7032 24.7494 43.6294 24.7968C39.8741 26.3203 36.0873 27.764 32.326 29.2692C30.8865 29.7742 29.4699 30.3364 28.0351 30.8477C27.7951 30.9321 27.5509 31.0877 27.28 30.927C27.2418 30.8736 27.2143 30.8176 27.196 30.7545C27.1388 30.5124 27.1498 30.2652 27.1498 30.0205C27.1498 20.9567 27.1498 11.8933 27.1485 2.8311C27.1481 2.47664 27.1481 2.12726 27.3279 1.80841Z" fill="#C85728"/>
<path d="M27.3279 1.80841C27.3262 10.4245 27.3236 19.0402 27.322 27.6563L27.3194 30.9143C27.0739 31.1 26.8483 30.9325 26.6338 30.8554C25.1935 30.3356 23.7642 29.7911 22.3238 29.2717C18.7987 27.867 15.2617 26.4886 11.7289 25.1025C11.4728 25.0029 11.2494 24.8045 10.9509 24.8176C10.7643 24.5776 10.9789 24.4271 11.0904 24.2715C16.3548 16.949 21.6242 9.62952 26.8937 2.31128C27.0243 2.13362 27.1222 1.92289 27.3279 1.80841Z" fill="#F16522"/>
<path d="M43.6358 24.7053C43.6791 24.6705 43.7223 24.6353 43.766 24.5984C44.9388 26.2304 46.1154 27.8603 47.2847 29.4948C49.4493 32.5255 51.6129 35.5597 53.7741 38.5938C53.8941 38.7626 53.9912 38.9483 54.0989 39.1255C52.9273 38.9178 51.8042 38.5319 50.6615 38.2169C46.94 37.1984 43.2216 36.1656 39.506 35.1306C37.7914 34.6532 36.0806 34.1541 34.3689 33.6644C34.3227 33.4083 34.5262 33.2853 34.6695 33.1497C36.6631 31.2896 38.5881 29.3549 40.6051 27.5189C41.4709 26.7299 42.2264 25.8272 43.1444 25.0894C43.3064 24.9597 43.4827 24.8473 43.6358 24.7053Z" fill="#7B7A7A"/>
<path d="M10.9501 24.8176C11.0722 24.6976 11.1951 24.7345 11.3346 24.7905C15.0184 26.2478 18.7021 27.7017 22.3849 29.1572C22.9548 29.8857 23.2122 30.7701 23.5819 31.5965C24.7827 34.2783 25.9682 36.9656 27.1524 39.6542C27.2266 39.8221 27.3623 39.993 27.2143 40.191C26.259 39.2917 25.3012 38.3941 24.3493 37.4897C22.9794 36.1918 21.6116 34.8897 20.2437 33.5897C20.0008 33.4494 19.7981 33.2628 19.5976 33.0678C18.3552 31.8586 17.1265 30.6387 15.8604 29.4557C14.3166 28.0108 12.7665 26.5713 11.2719 25.0758C11.1727 24.9804 11.0582 24.9041 10.9501 24.8176Z" fill="#934821"/>
<path d="M27.2139 40.1906C26.6152 38.8143 26.0212 37.4371 25.4187 36.0625C24.4108 33.7593 23.3958 31.457 22.3837 29.1555C23.8465 29.6936 25.3076 30.2278 26.7712 30.7608C26.9489 30.8244 27.1172 30.9368 27.3195 30.9126C27.3195 30.9321 27.322 30.952 27.3262 30.9715C27.4806 31.1208 27.4844 31.3167 27.4844 31.5066C27.4827 34.2817 27.5128 37.0559 27.4704 39.8293C27.4691 39.9154 27.4581 40.0023 27.4416 40.0892C27.439 40.1215 27.4356 40.1562 27.4327 40.1901C27.3941 40.2249 27.3559 40.2622 27.3182 40.2987L27.2139 40.1906Z" fill="#6C2F13"/>
<path d="M43.6358 24.7053C42.8051 25.5249 41.9839 26.3563 41.141 27.164C38.9917 29.2192 36.8344 31.2633 34.6834 33.315C34.5698 33.4223 34.4727 33.5474 34.3684 33.6648C33.9635 34.0214 33.545 34.3636 33.1566 34.7371C31.8223 36.0193 30.5019 37.3176 29.1663 38.5997C28.6007 39.142 28.0114 39.6606 27.4326 40.1906L27.4173 40.1783C27.3512 39.77 27.5772 39.4363 27.7315 39.0933C29.104 36.0409 30.4405 32.9711 31.7951 29.9094C31.9173 29.6351 32.069 29.3828 32.2637 29.1556C35.6624 27.8149 39.0591 26.4738 42.4583 25.1369C42.8463 24.983 43.2431 24.8494 43.6358 24.7053Z" fill="#934821"/>
<path d="M32.2637 29.1547C31.64 30.5768 31.0158 31.9981 30.3921 33.4206C29.4004 35.6733 28.4082 37.9264 27.4157 40.1783C27.2753 40.0549 27.3237 39.8866 27.3237 39.7352C27.3228 36.8134 27.3249 33.8929 27.3266 30.972C28.9722 30.3669 30.6169 29.7602 32.2637 29.1547Z" fill="#3D1F0F"/>
<path d="M0.353455 39.1755L10.9509 24.8176L20.2433 33.5893L0.353455 39.1755Z" fill="#D7D7D7"/>
<path d="M59.0698 50.0626V1.64517H70.832V50.0626H59.0698ZM131.561 50.0626L131.835 15.8013H131.629L119.046 50.0626H110.84L98.5985 15.8013H98.3933L98.6668 50.0626H87.6563V1.64517H104.275L115.285 32.693H115.558L126.09 1.64517H142.982V50.0626H131.561ZM185.382 14.2282C183.399 11.6978 179.775 10.0569 176.766 10.0569C173.757 10.0569 169.996 11.0826 169.996 14.9121C169.996 18.1265 172.868 19.1521 177.45 20.5882C184.015 22.7082 192.495 25.5121 192.495 35.1543C192.495 46.3013 183.535 51.2939 173.962 51.2939C167.055 51.2939 160.079 48.7639 155.839 44.3187L163.499 36.5217C165.823 39.4634 170.132 41.6513 173.962 41.6513C177.518 41.6513 180.664 40.2839 180.664 36.3852C180.664 32.693 176.971 31.53 170.611 29.4782C164.456 27.4948 158.233 24.3491 158.233 15.596C158.233 4.85909 167.944 0.413452 176.971 0.413452C182.442 0.413452 188.596 2.46562 192.836 6.36303L185.382 14.2282Z" fill="url(#paint0_linear_215_704)"/>
<defs>
<linearGradient id="paint0_linear_215_704" x1="59.07" y1="25.8542" x2="192.836" y2="25.8542" gradientUnits="userSpaceOnUse">
<stop stop-color="#B146AC"/>
<stop offset="1" stop-color="#F78803"/>
</linearGradient>
</defs>
</svg>
